<svg width="93" height="106" viewBox="0 0 93 106" fill="none" xmlns="http://www.w3.org/2000/svg">
<path d="M21.9738 100.951C25.4504 104.12 35.2184 102.721 39.5214 102.519C44.0723 102.305 48.4961 101.253 52.6237 99.592C56.9547 97.8489 63.6373 93.4193 65.7594 92.2745C69.3237 90.3515 71.6545 89.3474 76.0331 86.4204C80.4117 83.4934 82.3875 82.2042 84.7331 79.1028C91.4352 70.2414 90.7733 55.9335 88.0598 44.6485C85.9022 35.675 79.6565 27.7771 73.0408 21.64C64.3587 13.5858 53.6798 7.32195 42.1396 4.53145C35.6509 2.96243 29.2491 2.43059 22.6753 3.73805C18.2846 4.61132 12.7258 5.82192 9.56966 9.32068C6.83022 12.3575 5.70073 17.2628 4.54894 21.063C3.17675 25.5903 2.016 30.0882 4.2756 34.5363C9.85297 45.5155 20.5595 53.812 31.3213 59.1893C41.0664 64.0586 52.576 67.9795 63.1864 63.8343C66.422 62.5702 69.7793 60.8015 72.6092 58.771C75.7669 56.5053 76.6883 53.4138 76.0331 49.6253C74.4566 40.5092 66.5312 33.5108 58.6116 29.6605C55.5578 28.1758 52.2671 27.3601 49.0018 26.4869C44.7589 25.3524 40.0689 23.8205 35.6947 25.2463C32.1645 26.397 28.6132 29.21 26.3294 32.1128C25.403 33.2903 24.2677 35.1208 25.1066 36.6424C26.4694 39.1143 29.2393 41.104 31.422 42.7876C33.9011 44.6999 36.5307 46.0781 39.5214 46.9998C44.3742 48.4956 49.4272 49.2585 54.4828 49.5964" stroke="#C2C2C2" stroke-width="5" stroke-linecap="round"/>
</svg>
