<svg width="85" height="51" viewBox="0 0 85 51" fill="none" xmlns="http://www.w3.org/2000/svg">
<path d="M5.4181 3.29332C4.52986 2.41314 4.9231 1.36675 6.26693 1.03463V1.03463C7.38101 0.759289 8.79181 1.07147 9.60503 1.77327L51.3632 37.8106L43.43 40.9606L5.4181 3.29332Z" fill="#C2C2C2"/>
<path d="M39.1816 31.5104L52.1647 40.0207L58.8853 48.827L46.414 42.4614L39.1816 31.5104Z" fill="#C2C2C2"/>
<path d="M58.6602 49.0535C59.9422 50.2218 63.5439 49.706 65.1306 49.6316C66.8086 49.5529 68.4398 49.165 69.9618 48.5527C71.5587 47.9101 74.0228 46.2773 74.8053 45.8553C76.1196 45.1465 76.979 44.7763 78.5935 43.6974C80.208 42.6184 80.9366 42.1432 81.8015 41C84.2727 37.7336 84.0286 32.4595 83.0281 28.2996C82.2325 24.9919 79.9296 22.0806 77.4902 19.8184C74.2888 16.8495 70.3512 14.5405 66.096 13.5119C63.7034 12.9335 61.3429 12.7375 58.9189 13.2194C57.3 13.5413 55.2503 13.9876 54.0865 15.2773C53.0764 16.3967 52.6599 18.2049 52.2352 19.6057C51.7292 21.2745 51.3012 22.9325 52.1344 24.5721C54.191 28.6192 58.1388 31.6774 62.107 33.6596C65.7003 35.4545 69.9442 36.8998 73.8565 35.3718C75.0496 34.9059 76.2875 34.2539 77.331 33.5054C78.4953 32.6702 78.8351 31.5307 78.5935 30.1342C78.0122 26.7738 75.0899 24.1941 72.1697 22.7748C71.0436 22.2276 69.8303 21.9269 68.6263 21.605C67.0618 21.1868 65.3324 20.6221 63.7196 21.1477C62.4179 21.5719 61.1084 22.6088 60.2663 23.6788C59.9247 24.1128 59.5061 24.7876 59.8154 25.3485C60.3179 26.2596 61.3393 26.9931 62.1441 27.6137C63.0582 28.3186 64.0278 28.8266 65.1306 29.1664C66.92 29.7177 68.7831 29.9989 70.6473 30.1235" stroke="#C2C2C2" stroke-linecap="round"/>
</svg>
