<svg width="423" height="423" viewBox="0 0 423 423" fill="none" xmlns="http://www.w3.org/2000/svg">
<path d="M191.536 423H231.464C246.684 423 258.346 413.701 261.904 399.06L270.404 362.063L276.729 359.886L308.948 379.671C321.796 387.783 336.621 385.805 347.493 374.923L375.165 347.422C386.037 336.54 388.014 321.504 379.909 308.841L359.748 276.79L362.12 270.855L399.083 262.149C413.512 258.588 423 246.717 423 231.681V192.507C423 177.47 413.71 165.599 399.083 162.038L362.515 153.135L359.945 146.804L380.107 114.752C388.211 102.09 386.235 87.2512 375.363 76.1717L347.69 48.4729C337.016 37.7891 322.192 35.8106 309.343 43.7245L277.124 63.5094L270.404 60.9373L261.904 23.9397C258.346 9.29888 246.684 0 231.464 0H191.536C176.316 0 164.654 9.29888 161.096 23.9397L152.399 60.9373L145.678 63.5094L113.657 43.7245C100.808 35.8106 85.786 37.7891 75.1122 48.4729L47.6369 76.1717C36.7654 87.2512 34.5911 102.09 42.893 114.752L62.857 146.804L60.485 153.135L23.9173 162.038C9.29019 165.599 0 177.47 0 192.507V231.681C0 246.717 9.48785 258.588 23.9173 262.149L60.8804 270.855L63.0547 276.79L43.0907 308.841C34.7888 321.504 36.9631 336.54 47.8346 347.422L75.3098 374.923C86.1813 385.805 101.204 387.783 114.052 379.671L146.073 359.886L152.399 362.063L161.096 399.06C164.654 413.701 176.316 423 191.536 423ZM194.699 392.136C191.338 392.136 189.559 390.751 188.966 387.585L177.107 338.519C165.049 335.551 153.782 330.803 145.283 325.461L102.192 351.972C99.8201 353.753 97.2505 353.357 94.8785 350.983L71.5542 327.637C69.3799 325.461 69.1822 323.087 70.7636 320.317L97.2505 277.581C92.7042 269.272 87.565 257.994 84.4023 245.926L35.3818 234.253C32.2192 233.659 30.8355 231.878 30.8355 228.515V195.474C30.8355 191.913 32.0215 190.33 35.3818 189.737L84.2047 177.866C87.3673 165.006 93.2972 153.333 96.8551 146.012L70.5659 103.277C68.7869 100.309 68.9846 97.935 71.1589 95.5608L94.6808 72.6104C97.0528 70.2362 99.2271 69.8405 102.192 71.6211L144.887 97.5393C153.387 92.7909 165.444 87.8447 177.304 84.4813L188.966 35.4149C189.559 32.2493 191.338 30.8644 194.699 30.8644H228.301C231.662 30.8644 233.441 32.2493 233.836 35.4149L245.893 84.877C258.149 88.0426 268.822 92.9888 277.717 97.7371L320.61 71.6211C323.773 69.8405 325.75 70.2362 328.319 72.6104L351.643 95.5608C354.015 97.935 354.015 100.309 352.236 103.277L325.947 146.012C329.703 153.333 335.435 165.006 338.598 177.866L387.618 189.737C390.781 190.33 392.164 191.913 392.164 195.474V228.515C392.164 231.878 390.583 233.659 387.618 234.253L338.4 245.926C335.237 257.994 330.296 269.272 325.552 277.581L352.039 320.317C353.62 323.087 353.62 325.461 351.248 327.637L328.122 350.983C325.552 353.357 323.18 353.753 320.61 351.972L277.52 325.461C269.02 330.803 257.951 335.551 245.893 338.519L233.836 387.585C233.441 390.751 231.662 392.136 228.301 392.136H194.699ZM211.5 287.078C252.812 287.078 286.81 253.048 286.81 211.5C286.81 170.348 252.812 136.318 211.5 136.318C170.188 136.318 135.993 170.348 135.993 211.5C135.993 252.85 169.991 287.078 211.5 287.078ZM211.5 256.412C186.99 256.412 166.828 236.231 166.828 211.5C166.828 187.165 186.99 166.984 211.5 166.984C235.615 166.984 255.777 187.165 255.777 211.5C255.777 236.033 235.615 256.412 211.5 256.412Z" fill="#C2C2C2"/>
</svg>
