<svg
      width="113"
      height="112"
      viewBox="0 0 113 112"
      fill="none"
      xmlns="http://www.w3.org/2000/svg"
    >
      <path
        d="M42.8532 60.9423C43.4842 53.6214 49.611 48 56.959 48V48C64.2628 48 70.3679 53.5558 71.0545 60.8272L71.804 68.7649C71.9344 70.1455 71.9292 71.5355 71.7886 72.9151L71.1494 79.1863C70.4076 86.4641 64.2787 92 56.9632 92V92C49.5996 92 43.4471 86.3933 42.7649 79.0614L42.1763 72.7353C42.059 71.4748 42.0547 70.2063 42.1634 68.9451L42.8532 60.9423Z"
        fill="#CEC0AC"
      />
      <path
        clipRule="evenodd"
        d="M45.816 67.7035C43.158 66.5983 42.0582 63.6724 42.3063 60.8045V60.8045C42.5327 58.1876 43.8511 55.7016 46.302 54.7567C49.1564 53.6562 52.7467 53.0005 56.6466 53.0005C60.9206 53.0005 64.8228 53.788 67.7921 55.0855C70.0823 56.0862 71.2227 58.5057 71.3614 61.0012V61.0012C71.5084 63.6434 70.5141 66.3215 68.1097 67.427C65.1038 68.809 61.0748 69.6543 56.6466 69.6543C52.522 69.6543 48.7437 68.9209 45.816 67.7035Z"
        fill="#8A7E6E"
      />
      <path
        d="M81 26.4767C81 44.7021 75.8549 63.2133 56.5715 66C38.783 63.36 30.5614 42.24 32.2057 25.3733C32.2057 7.14794 38.9042 0 56.5715 0C74.2389 0 81 8.25135 81 26.4767Z"
        fill="#CEC0AC"
      />
      <path
        d="M5.02555 89.9927C6.895 81.8062 14.1766 76 22.5738 76H90.3347C98.7053 76 105.971 81.7704 107.867 89.9236V89.9236C110.491 101.21 101.922 112 90.3347 112H22.5738C11.0152 112 2.45229 101.261 5.02555 89.9927V89.9927Z"
        fill="#CEC0AC"
      />
      <path
        d="M29 78.7808C29 77.3827 29.9024 76.1445 31.2332 75.7163L40.2203 72.8248C43.876 71.6486 47.323 75.1148 46.1266 78.7639V78.7639C45.4936 80.6946 43.6918 82 41.66 82H32.2192C30.4413 82 29 80.5587 29 78.7808V78.7808Z"
        fill="#CEC0AC"
      />
      <path
        d="M86 78.8006C86 77.3947 85.0822 76.1535 83.738 75.7417L73.9013 72.7275C70.197 71.5924 66.7693 75.1394 68.0305 78.8028V78.8028C68.6891 80.7158 70.4893 82 72.5125 82H82.8006C84.5676 82 86 80.5676 86 78.8006V78.8006Z"
        fill="#CEC0AC"
      />
      <path
        d="M52.1406 38.3184C52.1016 37.8887 51.9941 36.9902 51.8184 35.623C51.6621 34.2559 51.584 33.1914 51.584 32.4297C51.584 31.3555 51.9746 30.3398 52.7559 29.3828C53.5371 28.4258 54.748 27.2246 56.3887 25.7793C58.3027 24.0996 59.748 22.6445 60.7246 21.4141C61.7207 20.1641 62.2188 18.7578 62.2188 17.1953C62.2188 15.5547 61.6914 14.3438 60.6367 13.5625C59.6016 12.7812 58.0293 12.3906 55.9199 12.3906C54.6895 12.3906 53.4199 12.5078 52.1113 12.7422C50.8027 12.957 49.9727 13.1035 49.6211 13.1816L48.6543 8.66992C48.8496 8.5918 49.3281 8.44531 50.0898 8.23047C50.8516 8.01563 51.7891 7.81055 52.9023 7.61523C54.0352 7.40039 55.1387 7.29297 56.2129 7.29297C59.8066 7.29297 62.7559 8.01563 65.0605 9.46094C67.3652 10.9062 68.5176 13.2891 68.5176 16.6094C68.5176 18.1719 68.2051 19.6172 67.5801 20.9453C66.9551 22.2539 66.2129 23.3867 65.3535 24.3438C64.4941 25.3008 63.3516 26.4629 61.9258 27.8301C60.4023 29.2363 59.2695 30.3984 58.5273 31.3164C57.7852 32.2344 57.4141 33.2109 57.4141 34.2461C57.4141 35.2031 57.4336 36.0137 57.4727 36.6777C57.5117 37.3418 57.5312 37.7715 57.5312 37.9668L52.1406 38.3184ZM51.4082 48.3965C51.4082 47.0879 51.7891 46.0625 52.5508 45.3203C53.3125 44.5781 54.2305 44.207 55.3047 44.207C56.4961 44.207 57.4434 44.5781 58.1465 45.3203C58.8691 46.0625 59.2305 47.0879 59.2305 48.3965C59.2305 49.6855 58.8594 50.7109 58.1172 51.4727C57.375 52.2148 56.4375 52.5859 55.3047 52.5859C54.1133 52.5859 53.166 52.2246 52.4629 51.502C51.7598 50.7598 51.4082 49.7246 51.4082 48.3965Z"
        fill="#424242"
      />
    </svg>